<svg width="180" height="34" viewBox="0 0 180 34" fill="none" xmlns="http://www.w3.org/2000/svg">
<path fill-rule="evenodd" clip-rule="evenodd" d="M17.0742 23.0995L9.05495 29.295L14.7994 33.7209C15.2822 34.0929 15.9749 34.0929 16.4578 33.7209L30.538 22.8929L23.93 17.816L17.0742 23.0995ZM14.6154 23.4328L12.0551 21.4597L12.0514 21.4668L0.000152576 12.32C0.000143039 12.3221 0.000137317 12.3243 0.000137317 12.3264L0.000137214 13.5044L0.000104788 13.511L0.000104074 21.6735C0.000104038 22.0868 0.189031 22.4587 0.503909 22.7067L8.01329 28.4924L14.6154 23.4328ZM0.630379 11.1958L7.22516 16.2625L14.7994 10.4253C14.8665 10.3736 14.9376 10.3291 15.0117 10.2918L22.2574 4.73897L16.4578 0.27899C15.975 -0.0929731 15.2822 -0.0929732 14.7994 0.27899L0.630379 11.1958ZM23.3122 5.55014L16.7036 10.6147L24.989 16.9999L24.9833 17.0043L31.2507 21.8194C31.2549 21.7778 31.257 21.736 31.257 21.6942L31.257 20.4958L31.2571 20.4889L31.2571 12.3057C31.2571 11.9131 31.0682 11.5205 30.7533 11.2725L23.3122 5.55014Z" fill="#040D27"/>
<path d="M78.4401 23.3257C78.0128 23.7529 77.4946 23.9711 76.8855 23.9711C76.2764 23.9711 75.7674 23.7529 75.331 23.3257C74.9037 22.8984 74.6855 22.3802 74.6855 21.7711C74.6855 21.162 74.9037 20.653 75.331 20.2166C75.7583 19.7893 76.2764 19.5711 76.8855 19.5711C77.4946 19.5711 78.0037 19.7893 78.4401 20.2166C78.8673 20.6439 79.0855 21.162 79.0855 21.7711C79.0855 22.3802 78.8764 22.8984 78.4401 23.3257Z" fill="#040D27"/>
<path d="M89.3364 10.2277C90.7383 10.2277 91.8796 10.7162 92.7872 11.6932C93.7038 12.6702 94.1711 14.023 94.1711 15.7516V23.6711C94.1711 23.8308 94.0543 23.9529 93.9015 23.9529H91.1427C90.9899 23.9529 90.8731 23.8308 90.8731 23.6711V16.1931C90.8731 15.3007 90.6395 14.6243 90.1812 14.1639C89.7229 13.6848 89.1118 13.4406 88.339 13.4406C87.4853 13.4406 85.5262 13.4406 85.5262 13.4406C85.5262 13.4406 85.5262 15.6577 85.5262 16.7568V23.6898C85.5262 23.8495 85.4094 23.9717 85.2567 23.9717H82.4979C82.3451 23.9717 82.2283 23.8495 82.2283 23.6898V10.425C82.2283 10.2653 82.3451 10.1432 82.4979 10.1432H85.5262C86.9641 10.1432 87.6021 10.2277 89.3364 10.2277Z" fill="#040D27"/>
<path d="M100.041 18.4568C100.502 20.0956 101.762 20.915 103.813 20.915C105.036 20.915 105.986 20.5376 106.663 19.7826C106.748 19.6813 106.898 19.6537 107.011 19.7182L109.316 21.0163C109.467 21.0992 109.504 21.3017 109.401 21.4306C108.084 23.1247 106.202 23.9717 103.756 23.9717C101.546 23.9717 99.7678 23.318 98.4319 22.0106C97.0961 20.7033 96.4282 19.0553 96.4282 17.0574C96.4282 15.0872 97.0867 13.4392 98.4037 12.1318C99.7207 10.806 101.414 10.1432 103.484 10.1432C105.45 10.1432 107.058 10.806 108.328 12.1318C109.617 13.4576 110.257 15.0964 110.257 17.0574C110.257 17.4257 110.229 17.8032 110.163 18.2083C110.144 18.3464 110.022 18.4476 109.88 18.4476H100.041V18.4568ZM99.9935 15.8329H106.814C106.616 14.9399 106.212 14.277 105.581 13.8443C104.979 13.4115 104.283 13.1906 103.493 13.1906C102.562 13.1906 101.8 13.43 101.188 13.8995C100.586 14.3506 100.182 14.9951 99.9935 15.8329Z" fill="#040D27"/>
<path d="M118.526 13.7704H115.871V19.3526C115.871 19.8147 115.981 20.1541 116.209 20.371C116.437 20.5879 116.765 20.7105 117.194 20.7482C117.559 20.767 117.997 20.7576 118.508 20.7388C118.663 20.7293 118.8 20.8613 118.8 21.0216V23.6053C118.8 23.7467 118.69 23.8787 118.544 23.8882C116.373 24.1145 114.831 23.8787 113.919 23.1904C112.989 22.4738 112.514 21.2008 112.514 19.3526V13.7704V10.4418V7.28297C112.514 7.12267 112.633 7.00009 112.788 7.00009H115.589C115.744 7.00009 115.862 7.12267 115.862 7.28297V10.4418H118.517C118.672 10.4418 118.791 10.5644 118.791 10.7247V13.4875C118.8 13.6384 118.672 13.7704 118.526 13.7704Z" fill="#040D27"/>
<path d="M136.616 10.1432H139.633C139.818 10.1432 139.957 10.3377 139.901 10.5224L135.895 23.7675C135.858 23.8841 135.747 23.9717 135.626 23.9717H132.795C132.674 23.9717 132.563 23.8841 132.526 23.7675L130.167 15.589L127.807 23.7675C127.77 23.8939 127.668 23.9717 127.539 23.9717H124.707C124.587 23.9717 124.476 23.8939 124.439 23.7675L120.441 10.5224C120.386 10.3377 120.515 10.1432 120.71 10.1432H123.726C123.846 10.1432 123.958 10.2307 123.995 10.3571L126.178 18.6328L128.51 10.3474C128.547 10.221 128.649 10.1432 128.779 10.1432H131.573C131.694 10.1432 131.805 10.2307 131.842 10.3474L134.183 18.662L136.367 10.3571C136.385 10.2307 136.496 10.1432 136.616 10.1432Z" fill="#040D27"/>
<path d="M152.73 21.983C151.389 23.3088 149.753 23.9717 147.814 23.9717C145.885 23.9717 144.24 23.3088 142.899 21.983C141.575 20.6388 140.914 19 140.914 17.0574C140.914 15.124 141.575 13.4852 142.899 12.1594C144.24 10.8152 145.876 10.1432 147.814 10.1432C149.753 10.1432 151.389 10.8152 152.73 12.1594C154.072 13.4852 154.742 15.1148 154.742 17.0574C154.742 19 154.072 20.6388 152.73 21.983ZM145.278 19.6537C145.958 20.335 146.804 20.6757 147.814 20.6757C148.825 20.6757 149.67 20.335 150.35 19.6537C151.03 18.9724 151.37 18.107 151.37 17.0574C151.37 16.0078 151.03 15.1424 150.35 14.4611C149.67 13.7798 148.825 13.4392 147.814 13.4392C146.804 13.4392 145.958 13.7798 145.278 14.4611C144.617 15.1424 144.286 16.0078 144.286 17.0574C144.286 18.107 144.617 18.9724 145.278 19.6537Z" fill="#040D27"/>
<path d="M163.914 10.4269V13.3307C163.914 13.4915 163.801 13.6145 163.654 13.6145H161.318C160.686 13.6145 160.175 14.1725 160.175 14.863V17.5398V23.6879C160.175 23.8487 160.063 23.9717 159.916 23.9717H157.259C157.112 23.9717 157 23.8487 157 23.6879V13.378C157 11.5903 158.324 10.1432 159.959 10.1432H163.654C163.793 10.1432 163.914 10.2756 163.914 10.4269Z" fill="#040D27"/>
<path d="M169.942 17.8397V23.6867C169.942 23.8481 169.831 23.9714 169.685 23.9714H167.056C166.911 23.9714 166.799 23.8481 166.799 23.6867V7.28485C166.799 7.12349 166.911 7.00009 167.056 7.00009H169.685C169.831 7.00009 169.942 7.12349 169.942 7.28485V17.8397Z" fill="#040D27"/>
<path d="M174.913 16.692C174.757 16.9064 174.757 17.2085 174.913 17.4229L179.312 23.4942C179.451 23.6891 179.329 23.9717 179.095 23.9717H175.694C175.529 23.9717 175.373 23.884 175.269 23.7475L170.688 17.4229C170.532 17.2085 170.532 16.9064 170.688 16.692L175.269 10.3673C175.373 10.2211 175.529 10.1432 175.694 10.1432H179.095C179.321 10.1432 179.451 10.4258 179.312 10.6207L174.913 16.692Z" fill="#040D27"/>
<path d="M72.1373 15.6915C72.0712 13.9933 71.6558 12.6643 70.6834 11.7044C69.7299 10.7445 68.5215 10.3661 67.0581 10.2646C66.3784 10.2185 64.9434 10.1539 63.4895 10.1446C61.6863 10.1354 59.8831 10.1723 59.8831 10.1723C59.7226 10.1723 59.5999 10.2923 59.5999 10.4492V12.5535V21.626V23.7303V29.0002H63.0646V26.4345V20.7769C63.0646 20.7769 63.0646 20.26 63.0646 19.6047C63.0646 18.9125 63.0646 18.0727 63.0646 17.5189V16.6606V13.4026C63.0646 13.4026 65.1228 13.4026 66.0196 13.4026C66.8221 13.4026 67.4735 13.6426 67.955 14.1133C68.4365 14.5655 68.682 15.23 68.682 16.1068V16.2452V18.0727C68.682 18.9494 68.4365 19.614 67.955 20.0662C67.4735 20.5369 66.8315 20.7769 66.0196 20.7769C65.4154 20.7769 63.6122 20.7769 63.6122 20.7769V23.9241C64.7262 23.9333 65.4815 23.9887 67.0676 23.9241C68.5403 23.8687 69.7488 23.4441 70.6929 22.4843C71.5708 21.6075 72.024 20.4169 72.109 18.9402C72.1184 18.9125 72.1467 18.8941 72.1467 18.8572C72.1373 18.8572 72.2128 17.5097 72.1373 15.6915Z" fill="#040D27"/>
<path d="M45.78 16.6905C45.9458 16.9041 45.9458 17.2106 45.78 17.4242L41.0623 23.498C40.9149 23.693 41.0439 23.9716 41.2927 23.9716H44.9415C45.1166 23.9716 45.2916 23.8881 45.4022 23.7487L50.3041 17.4242C50.47 17.2106 50.47 16.9041 50.3041 16.6905L45.393 10.366C45.2824 10.2267 45.1166 10.1431 44.9323 10.1431H41.2927C41.0531 10.1431 40.9149 10.431 41.0623 10.6168L45.78 16.6905Z" fill="#040D27"/>
<path d="M51.9344 16.6905C51.7685 16.9041 51.7685 17.2106 51.9344 17.4242L56.652 23.498C56.7994 23.693 56.6704 23.9716 56.4217 23.9716H52.7729C52.5978 23.9716 52.4227 23.8881 52.3121 23.7487L47.4102 17.4242C47.2444 17.2106 47.2444 16.9041 47.4102 16.6905L52.3214 10.366C52.4319 10.2267 52.5978 10.1431 52.7821 10.1431H56.4217C56.6612 10.1431 56.7994 10.431 56.652 10.6168L51.9344 16.6905Z" fill="#040D27"/>
</svg>
